<?xml version="1.0" encoding="UTF-8"?>
<svg xmlns="http://www.w3.org/2000/svg" version="1.1" viewBox="0 0 1920 1080">
  <defs>
    <style>
      .cls-1 {
        fill: none;
      }

      .cls-2 {
        fill: #fde48a;
      }

      .cls-3 {
        fill: #fd959e;
      }

      .cls-4 {
        fill: #fcb885;
      }

      .cls-5 {
        fill: #8bc6b3;
      }

      .cls-6 {
        fill: #83bfd6;
      }
    </style>
  </defs>
  <!-- Generator: Adobe Illustrator 28.6.0, SVG Export Plug-In . SVG Version: 1.2.0 Build 709)  -->
  <g>
    <g id="Layer_1">
      <g>
        <g id="_x35_pJcuk.tif">
          <g>
            <path class="cls-5" d="M756.4,436.6c-.02.2,0,.41,0,.62,0-.21,0-.41,0-.62ZM772.1,492.96c-.12-.19-.24-.38-.35-.57.17.28.36.6.53.89l-.18-.32ZM844.4,340.07c-40.99,3.74-79.18,36.04-87.04,77.22,8.32-4.76,19.93-11.4,19.93-11.4,14.69-35.81,57.25-58.39,94.72-47.85,2.74-2.67,9.99-9.95,12.74-12.41-13.1-4.85-26.95-6.76-40.35-5.56Z"/>
            <g>
              <path class="cls-1" d="M807.01,530.82h-.01M772.58,421.18l-.09,1.1,4.8-16.39c-2.07,4.93-3.65,10.06-4.71,15.29Z"/>
              <path class="cls-6" d="M820.44,631.73c-25.27.5-52.39-1.95-73.57-15.19-47.86-26.09-70.06-99.63-43.87-147.76,12.5-29.23,49.11-49.43,74.29-62.89-8.96,21.03-5.83,45.69,2.04,66.48,6.97,17.36,19.54,32.05,34.17,43.6-2.63,4.68-5.07,9.62-6.49,14.85-30.44-22.03-50.74-56.87-50.63-94.88-89.88,48.25-45.65,188.18,54.93,179.92,2.67,5.89,3.8,11.21,9.13,15.87Z"/>
            </g>
            <g>
              <path class="cls-3" d="M1047.06,513.24c-.97,2.71-1.93,5.4-2.88,8.08l3.82-10.67c-.32.87-.63,1.73-.94,2.59ZM1047.06,513.24c-.97,2.71-1.93,5.4-2.88,8.08l3.82-10.67c-.32.87-.63,1.73-.94,2.59ZM1047.06,513.24c-.97,2.71-1.93,5.4-2.88,8.08l3.82-10.67c-.32.87-.63,1.73-.94,2.59ZM1047.06,513.24c-.97,2.71-1.93,5.4-2.88,8.08l3.82-10.67c-.32.87-.63,1.73-.94,2.59ZM1051.57,482h0c.46-.4.92-.81,1.39-1.22-.47.4-.93.81-1.39,1.22ZM1098.22,461.06c1.14-.1,2.29-.18,3.45-.23-1.16.05-2.31.12-3.45.23ZM1208.35,533.63c-5.53-26.75-20.35-48.15-45.23-65.27-.19,3.31-1.54,14.64-1.9,18.12,58.54,42.62,34.92,140.37-36.28,150.46-9.6,1.51-15.17,6.39-20.07,10.69-23.51,16.03-24.4,39.39-17,60.16,2.49,8.16,3.7,17.42,5.51,26.09,1.79,9.49-.37,12.63-10.02,12.84-5.37.07-11.34-.67-16.89-.96-12.66,2.58-20.23-.15-27.05-11.15-16.27-29.83-56.15-49.63-86.26-71.39-34.39,6.11-77.54,5.6-97.4-19.4,0,0,14.95,29.87,14.94,29.88,28.89,12.42,51.95,8.85,78.26,5.8,27.01,19.21,63.02,37.28,77.21,63.52,10.58,17.97,25.96,20.51,45.22,18.82,11.21,1.4,27.14.98,33.43-8.06,18.38-25.94-24.2-69.39,5.9-90.56,5.53-4.24,9.86-9.88,16.66-10.78,54.45-7.24,93.11-65.57,80.97-118.81ZM1047.06,513.24c-.97,2.71-1.93,5.4-2.88,8.08l3.82-10.67c-.32.87-.63,1.73-.94,2.59Z"/>
              <path class="cls-2" d="M1052.76,395.72c-9.67-49.76-55.32-82.78-107.81-77.79-34.32,3.13-53.49,20.49-72.94,40.11,45.15,13.82,77.71,52.55,40.87,95.29-27.44,1.05-54.51,11.42-74.59,30.37-40.95,37.66-47.52,93.69-22.44,142.32,1.01,2.17,2.05,3.37,4.59,5.71,6.18,5.94,16.64,16.55,24.06,22.66l-.19.17c8.22,8.79,17.21,14.92,26.39,19.13l-14.94-29.87c-.29-.3-.58-.62-.86-.93-2.41-2.47-3.57-7.57-5.15-11.7-11.58-37.41,28.8-68.48,61.46-47.98,38.14,28.15,98.63,24.82,118.2-22.15,7.63-19.21,13.18-35.3,19.77-53.81,3.74-13.81,1.85-26.73,2.51-41.03.71-22.89,4.65-48.11,1.07-70.5ZM1029.39,516.06c-4.84,13.13-9.66,26.11-14.55,39.15-16.81,38.29-65.26,36.98-95.78,14.4-39.14-24.52-90.6,6.43-86.68,52.15-.93-.97-2.73-2.81-3.18-4.11-.36-.79-1.06-1.45-1.27-2.29h-.03c-.63-1.81-2.7-7.12-3.77-9.75h.02c-27.65-68.42,24.36-138.03,96.76-137.27,30.93-31.35,32.65-78.33-4.84-104.73-4.78-3.54-10.44-7.6-15.76-10.67,43.61-38.54,119.85-18.04,135.48,38.37,5.91,23.69.72,49.87.21,74.37-.19,17.8,1.19,34.14-6.61,50.38Z"/>
            </g>
            <g>
              <path class="cls-4" d="M1051.56,481.71v.3h.01c0-.1-.01-.2-.01-.3Z"/>
              <path class="cls-3" d="M1049.18,507.25c-.01.18-.11.41-.18.61l.18-.61Z"/>
              <path class="cls-4" d="M1163.12,468.36c-.19,3.31-1.54,14.64-1.9,18.12-3.37-2.7-7.03-5.33-10.9-7.79-9.51-1.37-19.02-2.72-28.53-4.07l-19.25,1.89c-20.54-.48-36.75,13.94-52.56,27.24,1.56-7.07,1.77-14.66,1.58-21.74h.01c9.95-8.98,21.82-15.8,34.86-18.99,9.31-2.4,26.01-2.95,35.7-4.2,8.53,1.2,17.05,2.42,25.57,3.63,3.29-53.54-51-104.81-104.74-94.73-2.85-5.05-6.18-9.8-9.86-14.16,67.85-17.59,137.45,46.55,130.02,114.8Z"/>
            </g>
          </g>
          <path class="cls-2" d="M840.32,504.23c1.28-1.53,2.6-3.01,3.94-4.44-1.35,1.43-2.66,2.91-3.94,4.44ZM840.32,504.23c1.28-1.53,2.6-3.01,3.94-4.44-1.35,1.43-2.66,2.91-3.94,4.44ZM840.32,504.23c1.28-1.53,2.6-3.01,3.94-4.44-1.35,1.43-2.66,2.91-3.94,4.44ZM840.32,504.23c1.28-1.53,2.6-3.01,3.94-4.44-1.35,1.43-2.66,2.91-3.94,4.44ZM840.32,504.23c1.28-1.53,2.6-3.01,3.94-4.44-1.35,1.43-2.66,2.91-3.94,4.44ZM840.32,504.23c1.28-1.53,2.6-3.01,3.94-4.44-1.35,1.43-2.66,2.91-3.94,4.44ZM840.32,504.23c1.28-1.53,2.6-3.01,3.94-4.44-1.35,1.43-2.66,2.91-3.94,4.44Z"/>
        </g>
        <g>
          <path d="M501.86,602.04v-93.11h28.86c9.84,0,18.98,1.44,27.4,4.32,8.42,2.88,15.34,7.78,20.75,14.7,5.41,6.92,8.11,16.05,8.11,27.4s-2.68,21.15-8.05,28.07c-5.37,6.92-12.24,11.75-20.62,14.5-8.38,2.75-17.58,4.12-27.6,4.12h-28.86ZM535.51,579.43c4.34,0,8.4-.67,12.17-2,3.77-1.33,6.94-3.75,9.51-7.25,2.57-3.5,3.86-8.31,3.86-14.43s-1.29-10.99-3.86-14.63c-2.57-3.63-5.77-6.14-9.58-7.52-3.81-1.37-7.85-2.06-12.1-2.06h-8.38v47.89h8.38Z"/>
          <path d="M615.05,602.04c-4.7,0-8.58-1.53-11.64-4.59-3.06-3.06-4.59-6.94-4.59-11.64v-76.88h67.7v22.61h-48.42l5.99-5.99v59.86l-5.99-5.99h48.42v22.61h-51.48ZM621.97,564.93v-19.42h38.71v19.42h-38.71Z"/>
          <path d="M716.14,603.37c-13.83,0-24.17-2.9-30.99-8.71-6.83-5.81-10.24-13.99-10.24-24.54h25.94c0,4.52,1.46,7.78,4.39,9.78s6.78,2.99,11.57,2.99,7.96-.64,10.04-1.93c2.08-1.28,3.13-3.26,3.13-5.92,0-1.6-.42-2.95-1.26-4.06-.84-1.11-2.46-2.17-4.85-3.19-2.39-1.02-5.94-2.11-10.64-3.26-.53-.18-1.06-.33-1.6-.47s-1.06-.24-1.6-.33c-7.45-1.77-13.37-3.61-17.76-5.52-4.39-1.91-7.87-4.74-10.44-8.51-2.57-3.77-3.86-8.85-3.86-15.23,0-8.87,3.44-15.56,10.31-20.08,6.87-4.52,15.76-6.78,26.67-6.78,8.6,0,15.7,1.26,21.28,3.79,5.59,2.53,9.71,6.01,12.37,10.44,2.66,4.44,3.99,9.58,3.99,15.43h-25.14c0-2.84-1.09-5.14-3.26-6.92-2.17-1.77-5.34-2.66-9.51-2.66-3.55,0-6.23.58-8.05,1.73-1.82,1.15-2.73,2.93-2.73,5.32,0,1.69.42,3.08,1.26,4.19.84,1.11,2.37,2.11,4.59,2.99,2.22.89,5.5,1.86,9.84,2.93h.27c.35.09.67.16.93.2.27.05.58.11.93.2,8.25,1.95,14.7,3.9,19.35,5.85,4.66,1.95,8.29,4.63,10.91,8.05,2.61,3.42,3.92,8.05,3.92,13.9,0,9.49-3.48,16.92-10.44,22.28-6.96,5.37-16.74,8.05-29.33,8.05Z"/>
          <path d="M766.82,602.04v-93.11h44.29c11.88,0,21.22,2.93,28,8.78s10.18,14.5,10.18,25.94-3.39,19.71-10.18,25.61c-6.78,5.9-16.12,8.85-28,8.85h-21.15v-21.28h16.36c5.05,0,9.13-1.04,12.24-3.13,3.1-2.08,4.66-5.43,4.66-10.04s-1.55-8.11-4.66-10.24c-3.1-2.13-7.18-3.19-12.24-3.19h-20.22l5.99-7.05v78.88h-25.27Z"/>
          <path d="M876.29,602.04c-5.68,0-9.8-1.28-12.37-3.86-2.57-2.57-3.86-6.69-3.86-12.37v-76.88h25.27v76.48l-5.99-5.99h41.77v22.61h-44.83Z"/>
          <path d="M970.99,603.37c-10.11,0-18.22-1.77-24.34-5.32-6.12-3.55-10.44-8.22-12.97-14.03-2.53-5.81-3.79-12.48-3.79-20.02v-55.07h25.27v54.54c0,3.55.49,6.65,1.46,9.31.97,2.66,2.64,4.77,4.99,6.32,2.35,1.55,5.47,2.33,9.38,2.33s7.03-.78,9.38-2.33c2.35-1.55,4.01-3.66,4.99-6.32.97-2.66,1.46-5.76,1.46-9.31v-54.54h25.27v55.07c0,7.54-1.26,14.21-3.79,20.02-2.53,5.81-6.85,10.49-12.97,14.03-6.12,3.55-14.23,5.32-24.34,5.32Z"/>
          <path d="M1071.82,603.37c-9.93,0-18.62-2.04-26.07-6.12-7.45-4.08-13.21-9.73-17.29-16.96-4.08-7.23-6.12-15.54-6.12-24.94s2.02-17.47,6.05-24.74c4.03-7.27,9.78-12.92,17.23-16.96,7.45-4.03,16.05-6.05,25.8-6.05,12.59,0,22.99,2.82,31.19,8.45,8.2,5.63,13.99,14.03,17.36,25.21h-28.2c-1.78-4.17-4.37-7.23-7.78-9.18-3.42-1.95-7.52-2.93-12.3-2.93-4.44,0-8.4.95-11.91,2.86-3.5,1.91-6.3,4.79-8.38,8.65-2.08,3.86-3.13,8.63-3.13,14.3,0,6.12,1.04,11.17,3.13,15.16,2.08,3.99,4.94,6.94,8.58,8.85,3.64,1.91,7.8,2.86,12.5,2.86,4.34,0,8.16-.67,11.44-2,3.28-1.33,5.85-3.44,7.71-6.32,1.86-2.88,2.79-6.54,2.79-10.97l4.92,7.05h-27.8v-19.02h49.75c0,11.17-1.97,20.73-5.92,28.67-3.95,7.94-9.64,13.95-17.09,18.02-7.45,4.08-16.27,6.12-26.47,6.12Z"/>
          <path d="M1146.17,525.03c1.68-4.79,3.55-8.45,5.59-10.97,2.04-2.53,4.3-4.23,6.78-5.12,2.48-.89,5.59-1.33,9.31-1.33s6.83.44,9.31,1.33c2.48.89,4.74,2.59,6.78,5.12,2.04,2.53,3.9,6.19,5.59,10.97l27.13,77.02h-26.6l-22.21-71.69-22.21,71.69h-26.6l27.13-77.02ZM1139.52,585.55v-21.28h56.8v21.28h-56.8Z"/>
          <path d="M1225.45,602.04v-93.11h28.86c9.84,0,18.98,1.44,27.4,4.32,8.42,2.88,15.34,7.78,20.75,14.7,5.41,6.92,8.11,16.05,8.11,27.4s-2.68,21.15-8.05,28.07c-5.37,6.92-12.24,11.75-20.62,14.5-8.38,2.75-17.58,4.12-27.6,4.12h-28.86ZM1259.1,579.43c4.34,0,8.4-.67,12.17-2,3.77-1.33,6.94-3.75,9.51-7.25,2.57-3.5,3.86-8.31,3.86-14.43s-1.29-10.99-3.86-14.63c-2.57-3.63-5.76-6.14-9.58-7.52-3.81-1.37-7.85-2.06-12.1-2.06h-8.38v47.89h8.38Z"/>
          <path d="M1337.04,525.03c1.68-4.79,3.55-8.45,5.59-10.97,2.04-2.53,4.3-4.23,6.78-5.12,2.48-.89,5.59-1.33,9.31-1.33s6.83.44,9.31,1.33c2.48.89,4.74,2.59,6.78,5.12,2.04,2.53,3.9,6.19,5.59,10.97l27.13,77.02h-26.6l-22.21-71.69-22.21,71.69h-26.6l27.13-77.02ZM1330.39,585.55v-21.28h56.8v21.28h-56.8Z"/>
        </g>
        <g>
          <path d="M658.55,481.75h-7.07v-34.04h7.07v34.04Z"/>
          <path d="M665.08,447.71h7.46l13.51,23.74v-23.74h6.63v34.04h-7.11l-13.86-24.15v24.15h-6.63v-34.04Z"/>
          <path d="M724.09,447.71v6.03h-10.19v28.01h-7.16v-28.01h-10.23v-6.03h27.58Z"/>
          <path d="M753.42,453.73h-18.01v7.23h16.54v5.91h-16.54v8.75h18.85v6.12h-25.8v-34.04h24.97v6.03Z"/>
          <path d="M759.8,447.71h7.11v27.92h17v6.12h-24.11v-34.04Z"/>
          <path d="M795.18,481.75h-7.07v-34.04h7.07v34.04Z"/>
          <path d="M824.72,458.33c-.54-2.32-1.86-3.95-3.95-4.87-1.17-.51-2.47-.76-3.9-.76-2.74,0-4.99,1.03-6.76,3.1-1.76,2.07-2.64,5.17-2.64,9.32s.95,7.14,2.86,8.88c1.91,1.74,4.08,2.6,6.51,2.6s4.34-.68,5.87-2.05c1.52-1.37,2.46-3.16,2.82-5.38h-7.88v-5.68h14.18v18.27h-4.71l-.72-4.25c-1.37,1.61-2.6,2.74-3.7,3.4-1.88,1.15-4.19,1.72-6.93,1.72-4.51,0-8.21-1.56-11.09-4.69-3-3.14-4.5-7.43-4.5-12.88s1.52-9.92,4.55-13.25c3.03-3.32,7.04-4.99,12.03-4.99,4.33,0,7.8,1.1,10.43,3.29,2.62,2.19,4.13,4.93,4.52,8.21h-7Z"/>
          <path d="M863.8,453.73h-18.01v7.23h16.54v5.91h-16.54v8.75h18.85v6.12h-25.8v-34.04h24.97v6.03Z"/>
          <path d="M870.05,447.71h7.46l13.51,23.74v-23.74h6.63v34.04h-7.11l-13.86-24.15v24.15h-6.63v-34.04Z"/>
          <path d="M907.58,451.26c2.74-2.8,6.23-4.2,10.46-4.2,5.67,0,9.81,1.88,12.43,5.64,1.45,2.11,2.22,4.23,2.33,6.35h-7.11c-.45-1.63-1.03-2.86-1.74-3.7-1.27-1.48-3.14-2.22-5.63-2.22s-4.53,1.04-6,3.13c-1.46,2.09-2.19,5.04-2.19,8.86s.77,6.68,2.32,8.58c1.54,1.9,3.51,2.85,5.89,2.85s4.3-.82,5.58-2.45c.71-.88,1.3-2.19,1.76-3.95h7.07c-.61,3.71-2.17,6.73-4.67,9.05-2.51,2.33-5.72,3.49-9.63,3.49-4.84,0-8.65-1.57-11.42-4.71-2.77-3.16-4.16-7.48-4.16-12.98,0-5.94,1.58-10.52,4.73-13.74Z"/>
          <path d="M944.98,481.75h-7.07v-34.04h7.07v34.04Z"/>
          <path d="M961.36,447.71h8.05l12.04,34.04h-7.71l-2.25-7h-12.54l-2.31,7h-7.44l12.15-34.04ZM960.89,468.88h8.72l-4.3-13.4-4.42,13.4Z"/>
          <path d="M1005.2,447.71h8.05l12.04,34.04h-7.71l-2.25-7h-12.54l-2.31,7h-7.44l12.15-34.04ZM1004.73,468.88h8.72l-4.3-13.4-4.42,13.4Z"/>
          <path d="M1051.44,448.58c1.25.54,2.32,1.33,3.19,2.38.72.86,1.29,1.82,1.71,2.86.42,1.05.63,2.24.63,3.58,0,1.62-.41,3.21-1.22,4.77-.82,1.56-2.16,2.67-4.04,3.31,1.57.63,2.68,1.53,3.34,2.69.65,1.16.98,2.94.98,5.32v2.29c0,1.56.06,2.61.19,3.16.19.88.62,1.52,1.31,1.94v.85h-7.85c-.22-.75-.37-1.36-.46-1.82-.18-.95-.29-1.93-.3-2.93l-.05-3.16c-.03-2.17-.4-3.62-1.12-4.34-.72-.72-2.07-1.09-4.05-1.09h-6.95v13.35h-6.95v-34.04h16.28c2.33.05,4.12.34,5.37.88ZM1036.73,453.62v9.15h7.66c1.52,0,2.66-.18,3.42-.55,1.35-.65,2.02-1.92,2.02-3.83,0-2.06-.65-3.45-1.95-4.16-.73-.4-1.83-.6-3.29-.6h-7.85Z"/>
          <path d="M1088.51,447.71v6.03h-10.18v28.01h-7.16v-28.01h-10.23v-6.03h27.58Z"/>
          <path d="M1099.16,481.75h-7.07v-34.04h7.07v34.04Z"/>
          <path d="M1105.81,447.75h24.27v5.98h-17.21v7.83h15.08v5.91h-15.08v14.27h-7.07v-34Z"/>
          <path d="M1141.19,481.75h-7.07v-34.04h7.07v34.04Z"/>
          <path d="M1151.1,451.26c2.74-2.8,6.23-4.2,10.46-4.2,5.67,0,9.81,1.88,12.43,5.64,1.45,2.11,2.22,4.23,2.33,6.35h-7.11c-.45-1.63-1.03-2.86-1.74-3.7-1.27-1.48-3.14-2.22-5.63-2.22s-4.53,1.04-6,3.13c-1.46,2.09-2.19,5.04-2.19,8.86s.77,6.68,2.32,8.58c1.54,1.9,3.5,2.85,5.88,2.85s4.3-.82,5.58-2.45c.71-.88,1.29-2.19,1.76-3.95h7.07c-.61,3.71-2.17,6.73-4.67,9.05-2.51,2.33-5.72,3.49-9.63,3.49-4.84,0-8.65-1.57-11.42-4.71-2.77-3.16-4.16-7.48-4.16-12.98,0-5.94,1.58-10.52,4.73-13.74Z"/>
          <path d="M1188.49,481.75h-7.07v-34.04h7.07v34.04Z"/>
          <path d="M1204.88,447.71h8.05l12.04,34.04h-7.71l-2.25-7h-12.54l-2.31,7h-7.44l12.15-34.04ZM1204.41,468.88h8.72l-4.3-13.4-4.42,13.4Z"/>
          <path d="M1229.3,447.71h7.11v27.92h17v6.12h-24.11v-34.04Z"/>
        </g>
      </g>
    </g>
  </g>
</svg>